<?xml version="1.0" encoding="UTF-8"?>
<svg id="Layer_1" xmlns="http://www.w3.org/2000/svg" version="1.1" viewBox="0 0 1080 1080">
  <!-- Generator: Adobe Illustrator 30.2.1, SVG Export Plug-In . SVG Version: 2.1.1 Build 1)  -->
  <defs>
    <style>
      .st0 {
        fill: #24f;
      }
    </style>
  </defs>
  <path class="st0" d="M262.29,477.71v-47.72c0-2.68-2.17-4.86-4.86-4.86h-110c-2.68,0-4.86,2.17-4.86,4.86v37.66c0,6.44-2.56,12.62-7.11,17.17l-39.77,39.77c-3.64,3.64-5.69,8.59-5.69,13.74v111.67c0,2.68,2.17,4.86,4.86,4.86h162.58c2.68,0,4.86-2.17,4.86-4.86v-47.72c0-2.68-2.17-4.86-4.86-4.86h-107.58c-1.34,0-2.43-1.09-2.43-2.43v-102.72c0-5.37,4.35-9.71,9.71-9.71h100.29c2.68,0,4.86-2.17,4.86-4.86Z"/>
  <g>
    <path d="M408.33,476.91c12.75,0,23.26,2.85,31.55,8.57,8.28,5.71,13.44,13.85,15.5,24.4h31.44c-2.2-12.6-6.82-23.33-13.85-32.2-7.04-8.87-16.05-15.68-27.04-20.45-10.99-4.76-23.52-7.14-37.59-7.14-18.17,0-34,3.78-47.48,11.32-13.49,7.55-23.93,18.18-31.33,31.88-7.4,13.71-11.1,29.94-11.1,48.69s3.7,34.62,11.1,48.47c7.4,13.85,17.84,24.55,31.33,32.09,13.48,7.55,29.31,11.32,47.48,11.32,14.07,0,26.6-2.38,37.59-7.14,10.99-4.76,20-11.61,27.04-20.55,7.03-8.94,11.65-19.64,13.85-32.1h-31.44c-2.05,10.41-7.22,18.5-15.5,24.29-8.28,5.79-18.8,8.68-31.55,8.68-18.47,0-33.01-5.79-43.64-17.37-10.63-11.58-15.94-27.48-15.94-47.7s5.31-36.12,15.94-47.7c10.62-11.58,25.17-17.37,43.64-17.37Z"/>
    <rect x="506.99" y="446.13" width="29.9" height="184.66"/>
    <path d="M990,560.44c0-13.19-2.6-24.59-7.81-34.18-5.2-9.6-12.57-17-22.09-22.2-9.53-5.2-20.88-7.81-34.08-7.81s-25.72,2.78-35.83,8.35c-10.11,5.57-17.91,13.45-23.41,23.63-5.5,10.19-8.24,22.24-8.24,36.16s2.78,26.09,8.35,36.49c5.57,10.41,13.52,18.43,23.85,24.08,10.33,5.64,22.46,8.46,36.38,8.46,16.41,0,30.08-3.85,41-11.54,10.92-7.69,17.99-18.43,21.22-32.2h-30.34c-2.05,6.45-5.79,11.28-11.21,14.51-5.42,3.23-12.38,4.84-20.88,4.84-11.58,0-20.81-3.26-27.7-9.78-6.89-6.52-10.92-15.79-12.09-27.81h102.88v-10.99ZM888,550.55c2.05-9.67,6.38-17.11,12.97-22.32,6.59-5.2,14.95-7.81,25.06-7.81s18.25,2.6,24.4,7.81c6.16,5.2,9.82,12.64,11,22.32h-73.43Z"/>
    <path d="M834.24,469.23h-23.52v49.45h-.88c-3.96-7.18-9.6-12.71-16.93-16.6-7.33-3.88-16.12-5.83-26.38-5.83-12.46,0-23.19,2.78-32.21,8.35-9.01,5.57-15.9,13.52-20.66,23.85-4.77,10.33-7.14,22.46-7.14,36.38s2.42,26.02,7.25,36.27c4.84,10.26,11.94,18.21,21.32,23.85,9.38,5.64,20.73,8.46,34.08,8.46,10.84,0,20.11-2.01,27.81-6.04,5.36-2.81,9.91-6.54,13.74-11.1v14.5h29.9v-154.54h24.61v-30.12h-30.99v23.09ZM800.83,598.25c-6.6,6.3-15.46,9.46-26.6,9.46-12.17,0-21.51-3.81-28.03-11.43-6.53-7.62-9.79-18.1-9.79-31.43s3.26-23.82,9.79-31.44c6.52-7.62,15.86-11.43,28.03-11.43,11.14,0,20,3.15,26.6,9.45,6.59,6.3,9.89,14.8,9.89,25.5v15.83c0,10.7-3.3,19.2-9.89,25.5Z"/>
    <path d="M658.71,573.41c0,10.55-3.11,18.76-9.34,24.62-6.23,5.86-14.99,8.79-26.27,8.79s-19.27-2.75-24.84-8.24c-5.57-5.49-8.36-13.66-8.36-24.51v-75.18h-29.89v81.12c0,16.41,4.87,29.38,14.62,38.91,9.74,9.53,23.41,14.29,41,14.29,11.43,0,21.03-1.98,28.79-5.93,5.47-2.79,10.2-6.53,14.29-11.13v14.64h29.9v-131.9h-29.9v74.52Z"/>
  </g>
</svg>