<?xml version="1.0" encoding="UTF-8"?>
<svg id="Layer_1" xmlns="http://www.w3.org/2000/svg" version="1.1" viewBox="0 0 1080 1080">
  <!-- Generator: Adobe Illustrator 30.2.1, SVG Export Plug-In . SVG Version: 2.1.1 Build 1)  -->
  <defs>
    <style>
      .st0 {
        fill: #24f;
      }
    </style>
  </defs>
  <path class="st0" d="M210.49,455.45c17.09,0,31.18,3.83,42.28,11.49,11.09,7.66,18.02,18.55,20.77,32.69h42.13c-2.95-16.88-9.14-31.27-18.56-43.15-9.43-11.88-21.51-21.01-36.24-27.4-14.73-6.37-31.52-9.57-50.38-9.57-24.35,0-45.57,5.06-63.63,15.17-18.07,10.12-32.07,24.36-41.98,42.72-9.92,18.37-14.87,40.12-14.87,65.26s4.96,46.4,14.87,64.96c9.92,18.56,23.91,32.9,41.98,43.01,18.06,10.12,39.28,15.17,63.63,15.17,18.85,0,35.65-3.19,50.38-9.57,14.73-6.38,26.81-15.56,36.24-27.54,9.42-11.98,15.61-26.32,18.56-43.02h-42.13c-2.75,13.95-9.68,24.8-20.77,32.56-11.1,7.76-25.19,11.64-42.28,11.64-24.75,0-44.24-7.76-58.48-23.27-14.24-15.51-21.36-36.82-21.36-63.93s7.12-48.41,21.36-63.93c14.24-15.51,33.73-23.27,58.48-23.27Z"/>
  <rect class="st0" x="342.7" y="414.21" width="40.07" height="247.46"/>
  <path class="st0" d="M990,567.4c0-17.68-3.49-32.95-10.46-45.81-6.98-12.86-16.84-22.78-29.61-29.75-12.77-6.97-27.98-10.46-45.67-10.46s-34.47,3.73-48.02,11.19c-13.55,7.47-24.01,18.02-31.37,31.67-7.37,13.65-11.05,29.8-11.05,48.46s3.73,34.97,11.19,48.9c7.46,13.95,18.12,24.7,31.97,32.26,13.84,7.56,30.1,11.34,48.75,11.34,21.99,0,40.32-5.15,54.94-15.47,14.63-10.31,24.11-24.69,28.43-43.15h-40.66c-2.75,8.64-7.76,15.12-15.03,19.44-7.27,4.33-16.59,6.48-27.98,6.48-15.52,0-27.89-4.37-37.12-13.11-9.23-8.73-14.63-21.16-16.2-37.27h137.87v-14.73ZM853.3,554.14c2.75-12.96,8.54-22.93,17.38-29.91,8.83-6.97,20.03-10.46,33.58-10.46s24.45,3.49,32.7,10.46c8.25,6.98,13.16,16.94,14.73,29.91h-98.4Z"/>
  <path class="st0" d="M781.26,445.15h-31.51v66.27h-1.18c-5.31-9.62-12.87-17.04-22.68-22.24-9.83-5.2-21.61-7.81-35.35-7.81-16.7,0-31.08,3.73-43.16,11.19-12.08,7.47-21.31,18.12-27.69,31.97-6.39,13.84-9.57,30.1-9.57,48.76s3.24,34.86,9.72,48.61c6.48,13.75,16.01,24.4,28.58,31.97,12.57,7.56,27.79,11.34,45.67,11.34,14.53,0,26.95-2.7,37.27-8.1,7.18-3.76,13.27-8.77,18.41-14.87v19.44h40.07v-207.1h32.98v-40.36h-41.54v30.95ZM736.49,618.07c-8.84,8.45-20.72,12.67-35.65,12.67-16.3,0-28.82-5.11-37.56-15.32-8.75-10.21-13.12-24.25-13.12-42.12s4.37-31.92,13.12-42.13c8.73-10.21,21.25-15.32,37.56-15.32,14.92,0,26.81,4.22,35.65,12.67,8.83,8.44,13.25,19.84,13.25,34.17v21.21c0,14.34-4.42,25.73-13.25,34.17Z"/>
  <path class="st0" d="M546.03,584.78c0,14.14-4.17,25.14-12.52,33-8.35,7.85-20.08,11.78-35.21,11.78s-25.83-3.68-33.29-11.05c-7.47-7.36-11.2-18.31-11.2-32.85v-100.75h-40.06v108.71c0,21.99,6.53,39.38,19.59,52.14,13.06,12.77,31.37,19.15,54.94,19.15,15.32,0,28.18-2.65,38.59-7.95,7.32-3.73,13.67-8.75,19.15-14.91v19.62h40.07v-176.76h-40.07v99.87Z"/>
</svg>