<svg xmlns="http://www.w3.org/2000/svg" viewBox="0 0 64 64">
  <rect width="64" height="64" rx="14" fill="#111"/>
  <g stroke="#f5f5f0" stroke-linecap="round">
    <line x1="27.8" y1="4.0" x2="36.2" y2="4.0" stroke-width="1.1" opacity="0.70"/>
    <line x1="24.7" y1="5.4" x2="39.3" y2="5.4" stroke-width="1.1" opacity="0.80"/>
    <line x1="21.5" y1="6.9" x2="42.5" y2="6.9" stroke-width="1.1" opacity="0.87"/>
    <line x1="18.4" y1="8.3" x2="45.6" y2="8.3" stroke-width="1.1" opacity="0.90"/>
    <line x1="16.2" y1="9.7" x2="47.8" y2="9.7" stroke-width="1.1" opacity="0.88"/>
    <line x1="14.1" y1="11.2" x2="49.9" y2="11.2" stroke-width="1.1" opacity="0.82"/>
    <line x1="12.0" y1="12.6" x2="52.0" y2="12.6" stroke-width="1.1" opacity="0.73"/>
    <line x1="9.9" y1="14.1" x2="54.1" y2="14.1" stroke-width="1.1" opacity="0.63"/>
    <line x1="7.9" y1="15.5" x2="56.1" y2="15.5" stroke-width="1.1" opacity="0.55"/>
    <line x1="6.7" y1="16.9" x2="57.3" y2="16.9" stroke-width="1.1" opacity="0.70"/>
    <line x1="6.8" y1="18.4" x2="57.2" y2="18.4" stroke-width="1.1" opacity="0.75"/>
    <line x1="8.1" y1="19.8" x2="55.9" y2="19.8" stroke-width="1.1" opacity="0.80"/>
    <line x1="9.5" y1="21.2" x2="54.5" y2="21.2" stroke-width="1.1" opacity="0.74"/>
    <line x1="9.8" y1="22.7" x2="54.2" y2="22.7" stroke-width="1.1" opacity="0.84"/>
    <line x1="8.7" y1="24.1" x2="55.3" y2="24.1" stroke-width="1.1" opacity="0.83"/>
    <line x1="7.1" y1="25.5" x2="56.9" y2="25.5" stroke-width="1.1" opacity="0.89"/>
    <line x1="6.5" y1="27.0" x2="57.5" y2="27.0" stroke-width="1.1" opacity="0.90"/>
    <line x1="7.3" y1="28.4" x2="56.7" y2="28.4" stroke-width="1.1" opacity="0.86"/>
    <line x1="8.7" y1="29.8" x2="55.3" y2="29.8" stroke-width="1.1" opacity="0.78"/>
    <line x1="10.5" y1="31.3" x2="53.5" y2="31.3" stroke-width="1.1" opacity="0.68"/>
    <line x1="10.5" y1="32.7" x2="53.5" y2="32.7" stroke-width="1.1" opacity="0.69"/>
    <line x1="8.7" y1="34.2" x2="55.3" y2="34.2" stroke-width="1.1" opacity="0.72"/>
    <line x1="7.3" y1="35.6" x2="56.7" y2="35.6" stroke-width="1.1" opacity="0.78"/>
    <line x1="6.6" y1="37.0" x2="57.4" y2="37.0" stroke-width="1.1" opacity="0.82"/>
    <line x1="6.8" y1="38.5" x2="57.2" y2="38.5" stroke-width="1.1" opacity="0.79"/>
    <line x1="7.9" y1="39.9" x2="56.1" y2="39.9" stroke-width="1.1" opacity="0.79"/>
    <line x1="9.0" y1="41.3" x2="55.0" y2="41.3" stroke-width="1.1" opacity="0.78"/>
    <line x1="9.3" y1="42.8" x2="54.7" y2="42.8" stroke-width="1.1" opacity="0.86"/>
    <line x1="8.6" y1="44.2" x2="55.4" y2="44.2" stroke-width="1.1" opacity="0.90"/>
    <line x1="7.5" y1="45.6" x2="56.5" y2="45.6" stroke-width="1.1" opacity="0.89"/>
    <line x1="6.6" y1="47.1" x2="57.4" y2="47.1" stroke-width="1.1" opacity="0.83"/>
    <line x1="9.6" y1="48.5" x2="54.4" y2="48.5" stroke-width="1.1" opacity="0.74"/>
    <line x1="12.5" y1="49.9" x2="51.5" y2="49.9" stroke-width="1.1" opacity="0.74"/>
    <line x1="15.3" y1="51.4" x2="48.7" y2="51.4" stroke-width="1.1" opacity="0.76"/>
    <line x1="18.2" y1="52.8" x2="45.8" y2="52.8" stroke-width="1.1" opacity="0.71"/>
    <line x1="20.3" y1="54.3" x2="43.7" y2="54.3" stroke-width="1.1" opacity="0.70"/>
    <line x1="22.1" y1="55.7" x2="41.9" y2="55.7" stroke-width="1.1" opacity="0.65"/>
    <line x1="23.9" y1="57.1" x2="40.1" y2="57.1" stroke-width="1.1" opacity="0.63"/>
    <line x1="25.7" y1="58.6" x2="38.3" y2="58.6" stroke-width="1.1" opacity="0.60"/>
    <line x1="27.5" y1="60.0" x2="36.5" y2="60.0" stroke-width="1.1" opacity="0.55"/>
  </g>
</svg>
