<svg xmlns="http://www.w3.org/2000/svg" viewBox="0 0 64 64">
  <rect width="64" height="64" rx="14" fill="#f5f5f0"/>
  <g stroke="#111" stroke-linecap="round">
    <line x1="27.6" y1="3.0" x2="36.4" y2="3.0" stroke-width="1.1" opacity="0.86"/>
    <line x1="24.4" y1="4.5" x2="39.6" y2="4.5" stroke-width="1.1" opacity="0.75"/>
    <line x1="21.1" y1="6.0" x2="42.9" y2="6.0" stroke-width="1.1" opacity="0.64"/>
    <line x1="17.9" y1="7.5" x2="46.1" y2="7.5" stroke-width="1.1" opacity="0.84"/>
    <line x1="15.6" y1="8.9" x2="48.4" y2="8.9" stroke-width="1.1" opacity="0.85"/>
    <line x1="13.4" y1="10.4" x2="50.6" y2="10.4" stroke-width="1.1" opacity="0.89"/>
    <line x1="11.3" y1="11.9" x2="52.7" y2="11.9" stroke-width="1.1" opacity="0.65"/>
    <line x1="9.1" y1="13.4" x2="54.9" y2="13.4" stroke-width="1.1" opacity="0.61"/>
    <line x1="7.0" y1="14.9" x2="57.0" y2="14.9" stroke-width="1.1" opacity="0.81"/>
    <line x1="5.8" y1="16.4" x2="58.2" y2="16.4" stroke-width="1.1" opacity="0.83"/>
    <line x1="5.9" y1="17.9" x2="58.1" y2="17.9" stroke-width="1.1" opacity="0.74"/>
    <line x1="7.3" y1="19.4" x2="56.7" y2="19.4" stroke-width="1.1" opacity="0.86"/>
    <line x1="8.7" y1="20.8" x2="55.3" y2="20.8" stroke-width="1.1" opacity="0.60"/>
    <line x1="9.0" y1="22.3" x2="55.0" y2="22.3" stroke-width="1.1" opacity="0.56"/>
    <line x1="7.8" y1="23.8" x2="56.2" y2="23.8" stroke-width="1.1" opacity="0.67"/>
    <line x1="6.3" y1="25.3" x2="57.7" y2="25.3" stroke-width="1.1" opacity="0.62"/>
    <line x1="5.6" y1="26.8" x2="58.4" y2="26.8" stroke-width="1.1" opacity="0.91"/>
    <line x1="6.5" y1="28.3" x2="57.5" y2="28.3" stroke-width="1.1" opacity="0.57"/>
    <line x1="7.9" y1="29.8" x2="56.1" y2="29.8" stroke-width="1.1" opacity="0.56"/>
    <line x1="9.7" y1="31.3" x2="54.3" y2="31.3" stroke-width="1.1" opacity="0.71"/>
    <line x1="9.7" y1="32.7" x2="54.3" y2="32.7" stroke-width="1.1" opacity="0.88"/>
    <line x1="7.9" y1="34.2" x2="56.1" y2="34.2" stroke-width="1.1" opacity="0.67"/>
    <line x1="6.4" y1="35.7" x2="57.6" y2="35.7" stroke-width="1.1" opacity="0.79"/>
    <line x1="5.6" y1="37.2" x2="58.4" y2="37.2" stroke-width="1.1" opacity="0.85"/>
    <line x1="5.9" y1="38.7" x2="58.1" y2="38.7" stroke-width="1.1" opacity="0.77"/>
    <line x1="7.0" y1="40.2" x2="57.0" y2="40.2" stroke-width="1.1" opacity="0.75"/>
    <line x1="8.1" y1="41.7" x2="55.9" y2="41.7" stroke-width="1.1" opacity="0.59"/>
    <line x1="8.5" y1="43.2" x2="55.5" y2="43.2" stroke-width="1.1" opacity="0.77"/>
    <line x1="7.8" y1="44.6" x2="56.2" y2="44.6" stroke-width="1.1" opacity="0.57"/>
    <line x1="6.6" y1="46.1" x2="57.4" y2="46.1" stroke-width="1.1" opacity="0.83"/>
    <line x1="5.7" y1="47.6" x2="58.3" y2="47.6" stroke-width="1.1" opacity="0.73"/>
    <line x1="8.8" y1="49.1" x2="55.2" y2="49.1" stroke-width="1.1" opacity="0.79"/>
    <line x1="11.8" y1="50.6" x2="52.2" y2="50.6" stroke-width="1.1" opacity="0.61"/>
    <line x1="14.7" y1="52.1" x2="49.3" y2="52.1" stroke-width="1.1" opacity="0.63"/>
    <line x1="17.7" y1="53.6" x2="46.3" y2="53.6" stroke-width="1.1" opacity="0.92"/>
    <line x1="19.9" y1="55.1" x2="44.1" y2="55.1" stroke-width="1.1" opacity="0.68"/>
    <line x1="21.8" y1="56.5" x2="42.2" y2="56.5" stroke-width="1.1" opacity="0.71"/>
    <line x1="23.6" y1="58.0" x2="40.4" y2="58.0" stroke-width="1.1" opacity="0.66"/>
    <line x1="25.5" y1="59.5" x2="38.5" y2="59.5" stroke-width="1.1" opacity="0.90"/>
    <line x1="27.4" y1="61.0" x2="36.6" y2="61.0" stroke-width="1.1" opacity="0.72"/>
  </g>
</svg>
