<svg xmlns="http://www.w3.org/2000/svg" viewBox="0 0 64 64">
  <rect width="64" height="64" rx="14" fill="#f5f5f0"/>
  <g stroke="#111" stroke-linecap="round">
    <!-- Brain scanline silhouette — horizontal lines at varying widths -->
    <!-- Top dome -->
    <line x1="26" y1="8" x2="38" y2="8" stroke-width="2.2" opacity="0.8"/>
    <line x1="22" y1="11" x2="42" y2="11" stroke-width="2.2" opacity="0.85"/>
    <line x1="19" y1="14" x2="45" y2="14" stroke-width="2.2" opacity="0.9"/>
    <!-- Upper brain -->
    <line x1="16" y1="17" x2="48" y2="17" stroke-width="2.2" opacity="0.85"/>
    <line x1="14" y1="20" x2="50" y2="20" stroke-width="2.2" opacity="0.9"/>
    <line x1="13" y1="23" x2="51" y2="23" stroke-width="2.2" opacity="0.8"/>
    <!-- Wide mid-brain with cortex ripple -->
    <line x1="12" y1="26" x2="52" y2="26" stroke-width="2.2" opacity="0.92"/>
    <line x1="13" y1="29" x2="51" y2="29" stroke-width="2.2" opacity="0.75"/>
    <line x1="12" y1="32" x2="52" y2="32" stroke-width="2.2" opacity="0.88"/>
    <!-- Medial fissure indent -->
    <line x1="15" y1="35" x2="49" y2="35" stroke-width="2.2" opacity="0.82"/>
    <line x1="17" y1="38" x2="47" y2="38" stroke-width="2.2" opacity="0.9"/>
    <line x1="15" y1="41" x2="49" y2="41" stroke-width="2.2" opacity="0.78"/>
    <!-- Lower brain -->
    <line x1="13" y1="44" x2="51" y2="44" stroke-width="2.2" opacity="0.85"/>
    <line x1="14" y1="47" x2="50" y2="47" stroke-width="2.2" opacity="0.9"/>
    <!-- Brain stem transition -->
    <line x1="19" y1="50" x2="45" y2="50" stroke-width="2.2" opacity="0.8"/>
    <line x1="24" y1="53" x2="40" y2="53" stroke-width="2.2" opacity="0.85"/>
    <!-- Brain stem -->
    <line x1="27" y1="56" x2="37" y2="56" stroke-width="2.2" opacity="0.75"/>
    <line x1="29" y1="59" x2="35" y2="59" stroke-width="2.2" opacity="0.7"/>
  </g>
</svg>
